<?xml version="1.0" encoding="UTF-8"?>
<svg id="Layer_2" data-name="Layer 2" xmlns="http://www.w3.org/2000/svg" viewBox="0 0 53.46 68.75">
  <defs>
    <style>
      .cls-1 {
        fill: #003e6f;
      }
    </style>
  </defs>
  <g id="_テキスト" data-name="テキスト">
    <g>
      <path class="cls-1" d="M18.82,50.98c-1.57,0-3.05,0-4.52,0-1.96,0-1.68-.06-2.69,1.43-2.84,4.19-5.66,8.39-8.49,12.58-.27,.41-.24,.6,.22,.77,.25,.09,.54,.13,.82,.13,12.3,0,24.6,0,36.89,0,2.76,0,5.52,0,8.28,0,.31,0,.63-.08,.91-.2,.26-.11,.35-.31,.14-.61-1.9-2.8-3.79-5.6-5.68-8.4-1.14-1.69-2.29-3.36-3.41-5.06-.3-.46-.69-.64-1.22-.63-1.83,0-3.66,0-5.49,0-.08,0-.15,0-.25,0,.01-.08,0-.15,.03-.19,.39-.81,.79-1.62,1.18-2.44,.12-.25,.28-.36,.56-.35,1.37,.01,2.75-.05,4.12,.02,1.49,.08,2.72,.67,3.55,2.01,.8,1.29,1.72,2.5,2.58,3.76,.54,.79,1.03,1.61,1.57,2.4,.75,1.1,1.52,2.18,2.27,3.28,.55,.81,1.08,1.64,1.62,2.46,.32,.49,.66,.96,.99,1.44,.88,1.28,.88,2.76-.01,3.95-.64,.85-1.53,1.44-2.68,1.44-15.58,0-31.16,0-46.74,0-.82,0-1.47-.35-2.11-.83-.64-.49-1-1.12-1.18-1.89-.24-1.08,.07-2.01,.69-2.89,.5-.7,.97-1.42,1.46-2.12,.25-.36,.52-.7,.76-1.07,.46-.68,.89-1.37,1.35-2.06,.69-1.04,1.39-2.09,2.09-3.13,.63-.94,1.27-1.87,1.91-2.81,.56-.81,1.09-1.64,1.68-2.43,.64-.87,1.56-1.37,2.61-1.45,1.48-.11,2.96-.08,4.45-.09,.13,0,.33,.07,.38,.17,.46,.9,.9,1.81,1.38,2.8Z"/>
      <path class="cls-1" d="M41.65,8.99c-1.57-3.19-3.89-5.66-7.1-7.25C32.44,.69,30.18,.18,27.84,.04c-3.08-.18-6.07,.2-8.9,1.5-4.06,1.88-6.73,5.05-8.25,9.2-1.67,4.57-1.7,9.21-.39,13.87,.71,2.52,1.81,4.89,2.92,7.24,3.37,7.16,6.79,14.31,10.19,21.45,.7,1.47,1.44,2.92,2.15,4.38,.2,.42,.47,.74,.97,.75,.49,0,.79-.28,.98-.72,.03-.08,.08-.16,.12-.24,2.11-4.33,4.27-8.63,6.33-12.99,2.55-5.4,5.02-10.84,7.51-16.27,1.46-3.19,2.26-6.53,2.24-8.65-.01-4.61-.62-7.69-2.04-10.58Zm-15.05,17.67c-4.95,0-8.99-3.98-9.05-8.8-.07-5.05,4-9.21,9.06-9.18,4.91,.03,8.94,4.05,8.94,8.99,0,4.92-4.05,8.99-8.94,8.99Z"/>
    </g>
  </g>
</svg>