<?xml version="1.0" encoding="UTF-8"?>
<svg id="Layer_2" data-name="Layer 2" xmlns="http://www.w3.org/2000/svg" viewBox="0 0 333 58.9">
  <defs>
    <style>
      .cls-1 {
        font-family: Meiryo-Bold, Meiryo;
        font-size: 42.42px;
        font-weight: 700;
        letter-spacing: .05em;
      }

      .cls-2 {
        fill: #e50012;
      }

      .cls-3 {
        fill: #0088cd;
        fill-rule: evenodd;
      }
    </style>
  </defs>
  <g id="_テキスト" data-name="テキスト">
    <g>
      <text class="cls-1" transform="translate(65.77 40.24)"><tspan x="0" y="0">京友株式会社</tspan></text>
      <g>
        <path class="cls-3" d="m24.53,25.3c1.79-.62,3.6-1.19,5.37-1.85,1.65-.62,3.37-.89,5.1-1,1.95-.12,3.86.11,5.52,1.34.97.72,1.64,1.63,1.82,2.83.11.73.1,1.48.09,2.22-.05,1.94-.98,3.49-2.37,4.72-.94.84-1.98,1.58-3.05,2.25-1.24.79-2.55,1.48-3.85,2.18-1.08.58-2.18,1.1-3.33,1.67.28.23.52.46.78.63,2.6,1.73,5.2,3.46,7.82,5.17,1.82,1.19,3.66,2.35,5.51,3.49.45.28.87.56,1.55.26.41-.18.95-.58,1.23-.81,1.37-1.11,2.25-2.9,2.28-3.89V10.73c-.06.12-1.12,2.76-1.92,3.77-.66.83-1.42,1.6-2.24,2.27-.68.55-1.54,1.01-2.33,1.42-.58.29-1.19.56-1.81.7-1.14.25-2.29.46-3.45.55-.97.08-1.99.02-2.97.01-.77,0-1.48-.07-2.25-.07-.72,0-1.44-.1-2.16-.07-.44.02-.84.2-1.17.57-.67.75-1.34,1.47-2,2.2-.41.46-.86.95-1.26,1.42-.62.72-1.2,1.42-1.84,2.12l.94-.31Z"/>
        <path class="cls-3" d="m36.42,49.8c-1.61-1.04-3.23-2.07-4.84-3.12-.79-.51-1.55-1.07-2.34-1.57-1.1-.7-2.22-1.36-3.32-2.06-1.07-.69-2.14-1.4-3.17-2.16-1.08-.79-2.37-1.32-3-2.67-.33-.7-.26-1.32,0-1.96.49-1.25,1.82-1.82,3.2-1.29.64.25,1.21.69,1.83,1.01.17.09.43.14.61.08,1.19-.42,2.37-.85,3.55-1.31,2.22-.88,4.33-1.95,6.23-3.42.69-.53,1.3-1.19,1.88-1.84.3-.34.46-.91.16-1.26-.26-.3-.79-.5-1.2-.49-.77,0-1.51.16-2.27.29-.49.08-1.25.3-1.71.46-1.22.42-2.06.73-3.19,1.25-.73.33-1.49.68-2.24,1.04-2.24,1.09-4.46,2.26-6.45,3.8-.8.62-1.61,1.21-2.39,1.85-.55.45-1.11.96-1.65,1.43-1.29,1.1-2.47,2.17-3.68,3.32-1.14,1.08-2.18,2.25-3.27,3.39-1.1,1.15-2.2,2.3-3.28,3.46-.47.5-.91,1.02-1.51,1.7.46.16.84.28,1.36.28h30.99c-.15-.12-.23-.17-.28-.2Z"/>
        <path class="cls-3" d="m41.96,6.49c-1.26.27-2.2,1.03-3.04,1.92-1.21,1.28-2.32,2.6-3.49,3.92-.34.39-.68.8-1.11,1.33,1.44,0,2.66,0,3.93.01,1.41,0,2.69-.38,3.79-1.24,1.14-.89,2.11-1.85,2.36-3.37.24-1.48-.69-2.95-2.44-2.57Z"/>
        <path class="cls-2" d="m41.83,0H6.13c-1.17.08-2.26.44-3.24,1.15C1.13,2.41.13,4.07,0,6.21v7.46c1.81,0,3.54,0,5.27,0,7.14,0,14.29,0,21.43,0,.44,0,.77-.09,1.08-.48.74-.92,1.55-1.78,2.34-2.67.75-.84,1.49-1.7,2.25-2.53,1.38-1.52,2.73-3.08,4.19-4.52.81-.8,1.77-1.49,2.76-2.05,1.32-.74,2.74-1.27,4.3-1.31-.6-.07-1.2-.1-1.81-.12Z"/>
        <path class="cls-2" d="m.15,43.89c1.19-1.31,22.14-24.93,22.14-24.93H0v23.98c.02.27.09.56.15.95Z"/>
      </g>
    </g>
  </g>
</svg>