<svg xmlns="http://www.w3.org/2000/svg" width="54.4" height="13.2" viewBox="0 0 54.4 13.2">
  <g id="_テキスト" transform="translate(-0.8 -0.4)">
    <g id="Group_1" data-name="Group 1">
      <path id="Path_1" data-name="Path 1" d="M16.4,13.3H13.1l-.8-5.6-.1-1.3-.1-1.6a9.687,9.687,0,0,1-.5,2l-.1.4-1.8,6H7.4l-1.8-6V6.9c-.2-.8-.4-1.5-.5-2v.7a1.952,1.952,0,0,0-.1.7c-.1.5-.1,1-.2,1.4L4,13.3H.8L2.8.4H6.3L8.2,7l.1.2a4.936,4.936,0,0,1,.3,1.5V8.4a2.034,2.034,0,0,0,.1-.5A4.649,4.649,0,0,0,9,7L11,.4h3.5C14.4.4,16.4,13.3,16.4,13.3Z" fill="#fff"/>
      <path id="Path_2" data-name="Path 2" d="M18.3,13.3V.4h7.9V3.2H21.7V5.4h4.2V8.2H21.7v2.2h4.5v2.9Z" fill="#fff"/>
      <path id="Path_3" data-name="Path 3" d="M28.5,13.3V.4h3.4L36.7,7c.1.1.2.4.5.8a10.742,10.742,0,0,1,.7,1.5c0-.2-.1-.5-.1-.8V.4h3.4V13.3H37.8L32.9,6.7c-.1-.2-.3-.4-.5-.8a10.742,10.742,0,0,1-.7-1.5c0,.3.1.6.1.8v8.1Z" fill="#fff"/>
      <path id="Path_4" data-name="Path 4" d="M43.8.4h3.5V6.6a10.365,10.365,0,0,0,.1,2,2.958,2.958,0,0,0,.2,1,1.2,1.2,0,0,0,.7.7,2.375,2.375,0,0,0,1.2.3,1.7,1.7,0,0,0,.7-.1.764.764,0,0,0,.5-.2,1.387,1.387,0,0,0,.7-.8,2.959,2.959,0,0,0,.2-1c0-.4.1-1.1.1-2V.4h3.5V7.2A9.723,9.723,0,0,1,55.1,9a5.066,5.066,0,0,1-.2,1.3A4.608,4.608,0,0,1,54,12a4.068,4.068,0,0,1-1.8,1.2,7.885,7.885,0,0,1-2.8.4,7.885,7.885,0,0,1-2.8-.4A3.387,3.387,0,0,1,44.8,12a3.365,3.365,0,0,1-.8-1.7,18.869,18.869,0,0,1-.3-3.1C43.8,7.2,43.8.4,43.8.4Z" fill="#fff"/>
    </g>
  </g>
</svg>
