<svg xmlns="http://www.w3.org/2000/svg" width="55.2" height="13.6" viewBox="0 0 55.2 13.6">
  <g id="_テキスト" transform="translate(-0.4 -0.2)">
    <g id="Group_1" data-name="Group 1">
      <path id="Path_1" data-name="Path 1" d="M10.3,1.1V4.9A7.887,7.887,0,0,0,8.8,3.7a2.822,2.822,0,0,0-1.5-.4,2.965,2.965,0,0,0-2.4,1,4.019,4.019,0,0,0-1,2.8,3.916,3.916,0,0,0,.9,2.6,2.965,2.965,0,0,0,2.4,1,2.6,2.6,0,0,0,1.5-.4,6.912,6.912,0,0,0,1.4-1.2v3.8a5.775,5.775,0,0,1-1.7.6,2.2,2.2,0,0,1-.8.1c-.3,0-.6.1-.9.1a12.31,12.31,0,0,1-2-.2,3.465,3.465,0,0,1-1.6-.8A5.65,5.65,0,0,1,.9,10.3,16.327,16.327,0,0,1,.4,7,7.635,7.635,0,0,1,.9,4.3,6.172,6.172,0,0,1,2.4,2.1,4.831,4.831,0,0,1,4.4.7,6.963,6.963,0,0,1,6.9.2,9.852,9.852,0,0,1,8.6.4a6.121,6.121,0,0,1,1.7.7Z" fill="#fff"/>
      <path id="Path_2" data-name="Path 2" d="M12.3,13.4V.6h3.5v9.9h4.4v3l-7.9-.1Z" fill="#fff"/>
      <path id="Path_3" data-name="Path 3" d="M35,7a7.512,7.512,0,0,1-.5,2.6A6.172,6.172,0,0,1,33,11.8a7.039,7.039,0,0,1-2.3,1.5,6.02,6.02,0,0,1-2.6.5,7.512,7.512,0,0,1-2.6-.5,5.415,5.415,0,0,1-2.2-1.5,10.707,10.707,0,0,1-1.5-2.2A5.753,5.753,0,0,1,21.3,7a7.512,7.512,0,0,1,.5-2.6,6.172,6.172,0,0,1,1.5-2.2A8.554,8.554,0,0,1,25.5.7,7.985,7.985,0,0,1,28.1.2a7.512,7.512,0,0,1,2.6.5,5.415,5.415,0,0,1,2.2,1.5,8.554,8.554,0,0,1,1.5,2.2A5.834,5.834,0,0,1,35,7Zm-6.8,3.8a3.043,3.043,0,0,0,2.4-1.1,4.063,4.063,0,0,0,1-2.7,7.719,7.719,0,0,0-.2-1.5,2.925,2.925,0,0,0-.7-1.2,3.168,3.168,0,0,0-4.8,0,4.063,4.063,0,0,0-1,2.7,4,4,0,0,0,.9,2.7,3.043,3.043,0,0,0,2.4,1.1Z" fill="#fff"/>
      <path id="Path_4" data-name="Path 4" d="M37.8,9.3a5.8,5.8,0,0,0,1.5,1.3,2.822,2.822,0,0,0,1.5.4,1.746,1.746,0,0,0,1.2-.4,1.231,1.231,0,0,0,.5-1,1.284,1.284,0,0,0-.4-1c-.3-.3-.8-.4-1.8-.6a6.793,6.793,0,0,1-2.7-1.3,2.732,2.732,0,0,1-.8-2.2,4.07,4.07,0,0,1,1.2-3A4.378,4.378,0,0,1,41.2.3a6.448,6.448,0,0,1,2,.3,7.572,7.572,0,0,1,1.8.9L44,3.9a8.342,8.342,0,0,0-1.2-.8,5.019,5.019,0,0,0-1.2-.2,1.493,1.493,0,0,0-1,.3c-.2.2-.5.5-.5.8a1.135,1.135,0,0,0,.3.8,3.963,3.963,0,0,0,1.3.6h.2a6.037,6.037,0,0,1,2.8,1.3,4.129,4.129,0,0,1,.7,1.1,3.416,3.416,0,0,1,.2,1.5,4.689,4.689,0,0,1-1.3,3.3,5.219,5.219,0,0,1-3.6,1.2,6.9,6.9,0,0,1-2.5-.4A7.013,7.013,0,0,1,36.1,12l1.7-2.7Z" fill="#fff"/>
      <path id="Path_5" data-name="Path 5" d="M47.7,13.4V.6h7.9V3.4H51.1V5.6h4.2V8.4H51.1v2.2h4.5v2.9H47.7Z" fill="#fff"/>
    </g>
  </g>
</svg>
