<?xml version="1.0" encoding="UTF-8"?>
<svg id="Layer_2" data-name="Layer 2" xmlns="http://www.w3.org/2000/svg" viewBox="0 0 400 99.36">
  <defs>
    <style>
      .cls-1 {
        fill: #3e3a39;
      }

      .cls-2, .cls-3 {
        fill: #e50012;
      }

      .cls-4 {
        fill: #0088cd;
      }

      .cls-4, .cls-3 {
        fill-rule: evenodd;
      }

      .cls-5 {
        fill: none;
      }
    </style>
  </defs>
  <g id="_ヘッダー" data-name="ヘッダー">
    <g>
      <g>
        <g>
          <path d="m118.81,52.53c-3.86,4.94-8.81,8.88-14.85,11.8l-3.32-4.3c2.09-1.18,4.4-2.76,6.91-4.74,2.52-1.98,4.51-3.97,5.98-5.95l5.27,3.18Zm26.84-20.47h-42.96v-5.09h18.08v-3.95h6.81v3.95h18.08v5.09Zm-17.77,28.83c0,1.36-.53,2.5-1.59,3.4s-2.28,1.36-3.66,1.36h-6.71l-.88-5.99h4.6c.96,0,1.44-.35,1.44-1.05v-9.48h-14.71v-14.31h35.46v14.31h-13.94v11.76Zm7.32-16.26v-5.13h-22.24v5.13h22.24Zm12.66,14.66l-4.3,4.86c-1.72-.71-4.01-2.28-6.87-4.69-2.86-2.42-5.08-4.6-6.68-6.55l4.74-3.51c1.07,1.29,3,3.01,5.8,5.17s5.23,3.74,7.31,4.73Z"/>
          <path d="m171.21,23.56c0,2-.05,3.88-.14,5.65h24.4v5.48h-24.89c-.17,1.29-.42,2.66-.74,4.14l21.59.05,1.9,1.53c-1.21,3.21-2.51,5.89-3.9,8.04-1.39,2.15-3.28,4.36-5.67,6.62,3.28,1.56,7.52,2.9,12.71,4.02l-3.51,5.81c-5.24-1.43-10-3.38-14.29-5.88-4.45,2.76-9.79,4.83-16.03,6.23l-2.09-5.16c5.38-1.35,9.64-2.92,12.8-4.72-1.24-1.02-2.48-2.25-3.73-3.68-1.25-1.43-2.13-2.63-2.66-3.59-2.73,6.46-6.83,11.97-12.31,16.52l-3.65-4.27c7.19-6.34,11.57-14.89,13.15-25.65h-10.83v-5.48h11.34c.05-1.16.07-3.04.07-5.65h6.48Zm7.23,28.39c2.9-2.42,5.04-5.07,6.44-7.95h-13.89c1.87,3.15,4.36,5.79,7.46,7.95Z"/>
          <path d="m207.66,50.46c-.98,1.98-2.13,3.91-3.46,5.79l-3.48-3.49c1.46-2.03,2.87-4.6,4.23-7.73,1.36-3.12,2.25-5.81,2.65-8.07h-5.21v-4.72h5.28v-8.78h5.9v8.78h3.25v4.72h-3.25v3.46c.71.91,2.21,2.3,4.48,4.16l-2.14,4.76c-.68-.51-1.46-1.25-2.35-2.23v18.54h-5.9v-15.2Zm20.89,3.3c-3.13,4.04-6.46,7.23-9.99,9.57l-3.46-4.18c2.29-1.8,4.48-3.88,6.58-6.25,2.09-2.37,3.75-4.61,4.97-6.71h-8.41v-5.55h10.22v-5.14h-4.28c-.87,2.06-1.84,3.71-2.9,4.95l-4.76-2.42c1.08-1.74,2.08-3.92,2.99-6.54.91-2.62,1.48-5.06,1.73-7.31l5.95.51c-.26,1.94-.62,3.73-1.07,5.37h2.35v-6.76h6.39v6.76h9.55v5.44h-9.55v5.14h10.76v5.55h-8.99c1.04,1.69,2.31,3.44,3.81,5.26s3.9,4.13,7.18,6.94l-4.11,5.09c-3.24-2.82-6.17-6.2-8.78-10.15v12.01h-6.16v-11.57Z"/>
          <path d="m295.84,36.87h-13.04c.15,3.05.42,5.76.8,8.13.38,2.37.9,4.46,1.56,6.28.66,1.82,1.41,3.36,2.25,4.61s1.39,1.95,1.64,2.09c.25.14.46.21.63.21.46,0,.74-.25.81-.74.08-.5.24-3.11.49-7.83l5.23,1.09c-.17,4.18-.37,7.35-.59,9.5s-.74,3.58-1.54,4.28c-.81.7-1.92,1.04-3.35,1.04s-2.65-.36-3.81-1.08c-1.16-.72-2.58-2.18-4.24-4.38-1.67-2.2-3.01-4.9-4.02-8.11-1.02-3.21-1.78-8.24-2.29-15.1h-24.12v-5.27h23.89c.02-.79.02-1.89.02-3.3l-.02-5.09h6.53v8.39h5.44c-1.05-1.39-2.6-3.31-4.65-5.76l4.76-2.77c2.38,2.46,4.38,4.76,5.99,6.9l-2.51,1.63h4.14v5.27Zm-17.38,19.08l-.05,5.48c-1.07.31-4.85.84-11.34,1.58-6.49.74-11.07,1.22-13.73,1.42l-1-5.81c1.94-.09,5.17-.34,9.71-.74v-12.01h-7.85v-5.32h21.21v5.32h-6.9v11.38c5.24-.56,8.55-.99,9.94-1.3Z"/>
          <path d="m337.14,42.59h-25.79v-2.65c-2.87,1.8-5.47,3.15-7.81,4.07l-3.04-4.95c3.33-1.33,7.12-3.58,11.37-6.74s7.17-6.08,8.75-8.76h6.3c5.03,6.34,11.93,11.25,20.7,14.75l-3.39,5.46c-2.2-.87-4.56-2.06-7.09-3.58v2.39Zm-.95,20.54c-7.36.82-17.76,1.57-31.21,2.25l-1-5.72,6.06-.21c1.64-2.48,3.17-5.06,4.58-7.74h-11.22v-5.58h41.31v5.58h-9.57c3.95,4,7.17,7.82,9.67,11.48l-6.95,2.6c-.36-.7-.91-1.59-1.67-2.67Zm-20.8-25.93h17.24c-3.56-2.6-6.44-5.25-8.62-7.95-2.06,2.59-4.93,5.24-8.62,7.95Zm2.32,21.91c6.12-.33,10.98-.66,14.59-1-1.52-1.86-2.87-3.43-4.07-4.72l3.09-1.67h-9.2c-1.36,2.52-2.83,4.99-4.41,7.39Z"/>
          <path d="m364.4,65.61h-5.86v-15.82c-1.63,1.38-3.37,2.64-5.23,3.79l-2.58-4.39c2.82-1.81,5.35-4,7.59-6.58s3.92-5.2,5.03-7.88h-10.55v-5.13h5.83v-5.9h5.9v5.9h5.48l1.23,1.28c-1.13,4-3.21,8.02-6.23,12.06,1.44,1.35,3.91,3.28,7.41,5.79l-2.95,5c-1.88-1.46-3.57-2.89-5.09-4.3v16.2Zm32.55-1.37h-28.79v-5.67h11.38v-17.66h-9.11v-5.46h9.11v-11.57h6.64v11.57h9.53v5.46h-9.53v17.66h10.76v5.67Z"/>
        </g>
        <g>
          <path class="cls-1" d="m102.07,94.77v-15.82h2.09v7.84l7.85-7.84h2.84l-6.64,6.41,6.93,9.41h-2.76l-5.63-8.01-2.59,2.52v5.48h-2.09Z"/>
          <path class="cls-1" d="m116.94,94.77v-15.82h11.44v1.87h-9.34v4.84h8.75v1.86h-8.75v5.38h9.71v1.87h-11.8Z"/>
          <path class="cls-1" d="m131.99,94.77v-15.82h2.09v15.82h-2.09Z"/>
          <path class="cls-1" d="m142.23,94.77v-6.7l-6.1-9.12h2.55l3.12,4.77c.58.89,1.11,1.78,1.61,2.68.47-.83,1.05-1.76,1.73-2.79l3.06-4.65h2.44l-6.31,9.12v6.7h-2.09Z"/>
          <path class="cls-1" d="m162.9,78.95h2.09v9.14c0,1.59-.18,2.85-.54,3.79-.36.93-1.01,1.7-1.95,2.28-.94.59-2.17.88-3.7.88s-2.69-.25-3.64-.77c-.94-.51-1.62-1.25-2.02-2.22-.4-.97-.6-2.29-.6-3.96v-9.14h2.09v9.13c0,1.37.13,2.39.38,3.04s.69,1.15,1.32,1.5,1.38.53,2.28.53c1.54,0,2.64-.35,3.29-1.05.65-.7.98-2.04.98-4.02v-9.13Z"/>
          <path class="cls-1" d="m185.9,89.23l2.09.53c-.44,1.72-1.23,3.03-2.37,3.93-1.14.9-2.53,1.35-4.18,1.35s-3.09-.35-4.16-1.04c-1.07-.69-1.88-1.7-2.44-3.02-.56-1.32-.84-2.73-.84-4.24,0-1.65.31-3.08.94-4.31.63-1.23,1.52-2.16,2.69-2.79s2.44-.96,3.84-.96c1.58,0,2.91.4,3.99,1.21s1.83,1.94,2.26,3.4l-2.06.49c-.37-1.15-.9-1.99-1.6-2.51-.7-.53-1.58-.79-2.63-.79-1.22,0-2.23.29-3.05.87s-1.39,1.37-1.72,2.35c-.33.98-.5,2-.5,3.04,0,1.35.2,2.52.59,3.52s1,1.75,1.83,2.25c.83.5,1.72.74,2.69.74,1.17,0,2.17-.34,2.98-1.01.81-.68,1.36-1.68,1.65-3.01Z"/>
          <path class="cls-1" d="m189.6,89.04c0-2.12.59-3.69,1.77-4.71.98-.85,2.19-1.27,3.6-1.27,1.58,0,2.86.52,3.86,1.55,1,1.03,1.5,2.46,1.5,4.28,0,1.47-.22,2.63-.66,3.48-.44.84-1.09,1.5-1.93,1.97s-1.77.7-2.77.7c-1.6,0-2.9-.51-3.89-1.54-.99-1.03-1.48-2.51-1.48-4.45Zm2,0c0,1.47.32,2.57.96,3.3.64.73,1.45,1.1,2.42,1.1s1.77-.37,2.41-1.1c.64-.73.96-1.85.96-3.36,0-1.42-.32-2.49-.97-3.22-.64-.73-1.44-1.1-2.4-1.1s-1.78.36-2.42,1.09c-.64.73-.96,1.82-.96,3.29Z"/>
          <path class="cls-1" d="m203.17,94.77v-2.21h2.21v2.21h-2.21Z"/>
          <path class="cls-1" d="m209.26,94.77v-2.21h2.21v2.21c0,.81-.14,1.47-.43,1.97s-.74.89-1.37,1.16l-.54-.83c.41-.18.71-.44.91-.79.2-.35.3-.85.32-1.5h-1.1Z"/>
          <path class="cls-1" d="m215.06,94.77v-15.82h2.09v13.95h7.79v1.87h-9.88Z"/>
          <path class="cls-1" d="m231.42,93.03l.28,1.72c-.55.12-1.04.17-1.47.17-.71,0-1.25-.11-1.64-.33-.39-.22-.66-.52-.82-.88-.16-.36-.24-1.13-.24-2.29v-6.59h-1.42v-1.51h1.42v-2.84l1.93-1.17v4h1.95v1.51h-1.95v6.7c0,.55.03.91.1,1.07s.18.28.33.38c.15.09.38.14.66.14.22,0,.5-.02.85-.08Z"/>
          <path class="cls-1" d="m240.76,94.77v-1.45c-.73,1.14-1.79,1.71-3.21,1.71-.91,0-1.75-.25-2.52-.75-.77-.5-1.36-1.21-1.78-2.11-.42-.9-.63-1.94-.63-3.11s.19-2.18.57-3.11c.38-.93.95-1.65,1.72-2.14s1.61-.74,2.56-.74c.69,0,1.3.15,1.84.44.54.29.98.67,1.32,1.14v-5.68h1.93v15.82h-1.8Zm-6.14-5.72c0,1.47.31,2.56.93,3.29.62.73,1.35,1.09,2.19,1.09s1.57-.35,2.16-1.04.89-1.75.89-3.18c0-1.57-.3-2.72-.91-3.45-.6-.73-1.35-1.1-2.23-1.1s-1.58.35-2.16,1.06-.87,1.82-.87,3.33Z"/>
          <path class="cls-1" d="m246.16,94.77v-2.21h2.21v2.21h-2.21Z"/>
        </g>
        <g>
          <path class="cls-2" d="m7.37,27.33c-2.78,1.99-4.3,4.63-4.32,8.08-.01,3.11,0,6.21,0,9.32v1.05c2.7,0,5.29,0,7.88,0,10.64,0,21.28,0,31.92,0,.66,0,1.15-.13,1.61-.71,1.1-1.36,2.31-2.63,3.49-3.94,1.12-1.25,2.22-2.5,3.36-3.73,2.06-2.24,4.06-4.54,6.23-6.66,1.21-1.18,2.64-2.2,4.11-3.02,1.96-1.09,4.08-1.87,6.41-1.93-.9-.1-1.79-.15-2.69-.17H12.2c-1.75.11-3.36.64-4.83,1.7Z"/>
          <path class="cls-4" d="m39.61,62.94c2.66-.92,5.36-1.75,8-2.73,2.46-.91,5.01-1.32,7.6-1.47,2.91-.17,5.75.17,8.22,1.97,1.45,1.06,2.44,2.41,2.7,4.18.16,1.08.15,2.19.13,3.28-.07,2.87-1.45,5.14-3.53,6.96-1.4,1.23-2.96,2.32-4.54,3.32-1.85,1.16-3.8,2.18-5.73,3.21-1.6.85-3.25,1.62-4.96,2.47.42.34.77.67,1.16.93,3.88,2.55,7.75,5.11,11.65,7.62,2.71,1.75,5.45,3.47,8.21,5.14.67.41,1.3.82,2.31.38.62-.27,1.41-.85,1.83-1.19,2.05-1.64,3.35-4.27,3.39-5.74v-49.82c-.08.18-1.67,4.07-2.86,5.56-.98,1.22-2.11,2.36-3.34,3.34-1.02.82-2.29,1.49-3.47,2.09-.86.43-1.77.83-2.7,1.03-1.7.36-3.42.68-5.14.81-1.45.11-2.97.02-4.43.02-1.15,0-2.2-.1-3.35-.1-1.07,0-2.15-.14-3.22-.1-.65.02-1.25.3-1.74.84-1,1.11-2,2.16-2.97,3.24-.62.68-1.28,1.4-1.88,2.1-.92,1.06-1.79,2.09-2.74,3.12l1.41-.46Z"/>
          <path class="cls-4" d="m57.31,99.07c-2.4-1.53-4.81-3.05-7.2-4.59-1.17-.75-2.31-1.57-3.48-2.32-1.63-1.03-3.31-2-4.94-3.04-1.6-1.02-3.19-2.07-4.73-3.18-1.61-1.16-3.53-1.94-4.47-3.93-.49-1.04-.39-1.94-.01-2.9.72-1.85,2.72-2.68,4.76-1.9.96.37,1.8,1.01,2.72,1.49.26.13.65.21.91.12,1.77-.61,3.54-1.25,5.28-1.93,3.3-1.29,6.46-2.88,9.28-5.05,1.03-.79,1.93-1.75,2.8-2.72.44-.5.69-1.35.24-1.85-.39-.44-1.18-.74-1.78-.73-1.14.01-2.24.24-3.38.43-.72.12-1.86.44-2.55.67-1.82.63-3.07,1.08-4.75,1.84-1.09.49-2.22,1-3.33,1.53-3.34,1.61-6.64,3.33-9.61,5.6-1.19.91-2.4,1.79-3.56,2.73-.82.67-1.65,1.42-2.46,2.1-1.92,1.61-3.68,3.21-5.49,4.9-1.69,1.59-3.25,3.32-4.86,4.99-1.63,1.7-3.27,3.39-4.89,5.1-.7.73-1.35,1.51-2.25,2.51.69.24,1.26.41,2.03.41h46.15c-.22-.17-.34-.25-.42-.29Z"/>
          <path class="cls-4" d="m65.56,35.2c-1.88.4-3.28,1.53-4.52,2.84-1.79,1.89-3.45,3.84-5.2,5.78-.51.57-1.01,1.18-1.65,1.96,2.14,0,3.96,0,5.85.02,2.1.01,4.01-.56,5.65-1.83,1.7-1.32,3.14-2.73,3.51-4.97.36-2.18-1.02-4.35-3.64-3.79Z"/>
          <path class="cls-3" d="m3.05,54.08v27.68c0,2.47-.01,4.94.01,7.41,0,.48.13.96.23,1.68,1.77-1.93,32.98-36.77,32.98-36.77H3.05Z"/>
        </g>
      </g>
      <rect class="cls-5" width="400" height="82"/>
    </g>
  </g>
</svg>