<?xml version="1.0" encoding="UTF-8"?>
<svg id="Layer_2" data-name="Layer 2" xmlns="http://www.w3.org/2000/svg" viewBox="0 0 302 52">
  <defs>
    <style>
      .cls-1 {
        fill: #0088cd;
      }

      .cls-1, .cls-2 {
        fill-rule: evenodd;
      }

      .cls-2 {
        fill: #e50012;
      }

      .cls-3 {
        fill: none;
      }
    </style>
  </defs>
  <g id="_ヘッダー" data-name="ヘッダー">
    <g>
      <g>
        <g>
          <path d="m80.52,33.5c-3.04,3.9-6.95,7.01-11.72,9.32l-2.62-3.39c1.65-.93,3.47-2.18,5.46-3.74,1.99-1.56,3.56-3.13,4.72-4.7l4.16,2.51Zm21.19-16.16h-33.92v-4.02h14.27v-3.12h5.37v3.12h14.27v4.02Zm-14.03,22.76c0,1.08-.42,1.97-1.26,2.69-.84.72-1.8,1.07-2.89,1.07h-5.3l-.7-4.73h3.63c.76,0,1.14-.27,1.14-.83v-7.48h-11.61v-11.3h27.99v11.3h-11v9.28Zm5.78-12.84v-4.05h-17.55v4.05h17.55Zm10,11.57l-3.39,3.83c-1.36-.56-3.16-1.8-5.42-3.71s-4.01-3.63-5.27-5.17l3.74-2.77c.84,1.02,2.37,2.38,4.58,4.08,2.21,1.71,4.13,2.95,5.77,3.73Z"/>
          <path d="m121.89,10.62c0,1.58-.04,3.06-.11,4.46h19.26v4.33h-19.64c-.13,1.02-.33,2.1-.59,3.27l17.04.04,1.5,1.21c-.95,2.53-1.98,4.65-3.08,6.35-1.1,1.7-2.59,3.44-4.47,5.23,2.59,1.24,5.94,2.29,10.03,3.17l-2.77,4.59c-4.13-1.12-7.89-2.67-11.28-4.64-3.51,2.18-7.73,3.82-12.66,4.92l-1.65-4.07c4.24-1.06,7.61-2.3,10.11-3.72-.98-.81-1.96-1.78-2.94-2.91-.99-1.13-1.68-2.08-2.1-2.83-2.15,5.1-5.39,9.45-9.72,13.04l-2.88-3.38c5.67-5,9.13-11.75,10.38-20.25h-8.55v-4.33h8.95c.04-.92.05-2.4.05-4.46h5.12Zm5.7,22.41c2.29-1.91,3.98-4,5.08-6.27h-10.97c1.48,2.48,3.44,4.57,5.89,6.27Z"/>
          <path d="m150.66,31.86c-.77,1.57-1.68,3.09-2.73,4.57l-2.75-2.75c1.15-1.6,2.26-3.63,3.34-6.1,1.08-2.46,1.77-4.59,2.09-6.37h-4.11v-3.72h4.16v-6.93h4.66v6.93h2.57v3.72h-2.57v2.73c.56.72,1.74,1.82,3.54,3.28l-1.69,3.76c-.54-.4-1.16-.99-1.85-1.76v14.64h-4.66v-12Zm16.49,2.6c-2.47,3.19-5.1,5.71-7.89,7.56l-2.73-3.3c1.81-1.42,3.54-3.06,5.19-4.93,1.65-1.87,2.96-3.64,3.92-5.3h-6.64v-4.38h8.07v-4.05h-3.38c-.68,1.63-1.45,2.93-2.29,3.91l-3.76-1.91c.86-1.37,1.64-3.09,2.36-5.16.72-2.07,1.17-4,1.37-5.77l4.7.4c-.21,1.53-.49,2.94-.84,4.24h1.85v-5.34h5.04v5.34h7.54v4.29h-7.54v4.05h8.49v4.38h-7.1c.82,1.33,1.82,2.72,3.01,4.15,1.19,1.44,3.08,3.26,5.67,5.48l-3.25,4.02c-2.56-2.23-4.87-4.9-6.93-8.02v9.48h-4.86v-9.13Z"/>
          <path d="m220.27,21.13h-10.29c.12,2.41.33,4.55.63,6.42s.71,3.52,1.23,4.96c.52,1.44,1.11,2.65,1.78,3.64.67.99,1.1,1.54,1.29,1.65.2.11.36.17.5.17.37,0,.58-.2.64-.59.06-.39.19-2.45.38-6.18l4.13.86c-.13,3.3-.29,5.8-.47,7.5-.18,1.7-.58,2.82-1.22,3.38s-1.52.83-2.64.83-2.09-.28-3.01-.85c-.92-.57-2.03-1.72-3.35-3.46-1.32-1.74-2.37-3.87-3.17-6.4s-1.4-6.5-1.81-11.92h-19.04v-4.16h18.86c.01-.62.02-1.49.02-2.6l-.02-4.02h5.15v6.62h4.29c-.83-1.1-2.05-2.62-3.67-4.55l3.76-2.18c1.88,1.94,3.46,3.76,4.73,5.45l-1.98,1.28h3.27v4.16Zm-13.72,15.06l-.04,4.33c-.84.24-3.83.66-8.95,1.25-5.12.59-8.74.96-10.84,1.12l-.79-4.59c1.53-.07,4.08-.27,7.67-.59v-9.48h-6.2v-4.2h16.75v4.2h-5.45v8.99c4.13-.44,6.75-.78,7.85-1.03Z"/>
          <path d="m252.87,25.65h-20.36v-2.09c-2.26,1.42-4.32,2.49-6.16,3.21l-2.4-3.91c2.63-1.05,5.62-2.82,8.98-5.32s5.66-4.8,6.91-6.92h4.97c3.97,5,9.42,8.88,16.34,11.65l-2.68,4.31c-1.74-.68-3.6-1.63-5.59-2.82v1.89Zm-.75,16.21c-5.81.65-14.02,1.24-24.63,1.78l-.79-4.51,4.79-.17c1.3-1.96,2.5-3.99,3.61-6.11h-8.86v-4.4h32.61v4.4h-7.56c3.12,3.15,5.66,6.18,7.63,9.06l-5.48,2.05c-.28-.55-.72-1.25-1.32-2.11Zm-16.42-20.47h13.61c-2.81-2.05-5.08-4.15-6.8-6.27-1.63,2.04-3.89,4.13-6.8,6.27Zm1.83,17.3c4.83-.26,8.67-.52,11.52-.79-1.2-1.47-2.27-2.71-3.21-3.72l2.44-1.32h-7.26c-1.08,1.99-2.24,3.94-3.49,5.83Z"/>
          <path d="m274.4,43.82h-4.62v-12.49c-1.28,1.09-2.66,2.08-4.13,2.99l-2.04-3.47c2.22-1.43,4.22-3.16,5.99-5.19s3.09-4.1,3.97-6.22h-8.33v-4.05h4.6v-4.66h4.66v4.66h4.33l.97,1.01c-.89,3.15-2.53,6.33-4.92,9.52,1.14,1.06,3.09,2.59,5.85,4.57l-2.33,3.94c-1.48-1.15-2.82-2.28-4.02-3.39v12.78Zm25.7-1.08h-22.73v-4.48h8.99v-13.94h-7.19v-4.31h7.19v-9.13h5.25v9.13h7.52v4.31h-7.52v13.94h8.49v4.48Z"/>
        </g>
        <g>
          <g>
            <path class="cls-2" d="m1.91,16.17v-.62c0-1.83,0-3.67,0-5.5,0-2.04.91-3.6,2.55-4.77,1-.71,2.1-1.02,3.31-1.01,1.53,0,3.06.01,4.59,0,2.17-.02,4.35-.07,6.53-.08,1.13,0,2.25.07,3.38.08,3.46.01,6.93,0,10.39,0,1.72,0,3.43,0,5.15,0,.82,0,1.64.02,2.46.11-1.37.03-2.62.49-3.78,1.14-.87.48-1.71,1.09-2.43,1.78-1.28,1.25-2.46,2.61-3.68,3.93-.67.73-1.32,1.47-1.98,2.2-.69.77-1.41,1.52-2.06,2.32-.27.34-.56.42-.95.42-6.28,0-12.56,0-18.84,0-1.53,0-3.05,0-4.65,0Z"/>
            <path class="cls-2" d="m21.4,21.19c-.3.33-.61.66-.91,1-1.48,1.67-2.95,3.34-4.42,5-.35.39-.7.77-1.05,1.16-.97,1.08-1.95,2.16-2.92,3.24-.86.96-1.73,1.92-2.59,2.89-.95,1.07-1.89,2.15-2.84,3.22-.57.64-1.14,1.28-1.72,1.91-.92,1.01-1.85,2.02-2.9,3.16-.06-.42-.13-.71-.14-.99-.01-1.46,0-2.92,0-4.38v-16.33h19.38s.08.08.11.12Z"/>
          </g>
          <g>
            <path class="cls-1" d="m22.66,26.57c.56-.61,1.13-1.21,1.67-1.83.36-.41.65-.88,1.01-1.28.58-.64,1.22-1.24,1.8-1.88.29-.32.64-.48,1.03-.5.63-.02,1.27.06,1.9.06.68,0,1.35-.07,2.03-.06.86,0,1.73.12,2.59.05,1.02-.08,2.03-.26,3.03-.48.55-.12,1.09-.35,1.59-.61.7-.35,1.42-.69,2.02-1.18.72-.58,1.39-1.25,1.97-1.97.71-.88,1.2-1.9,1.55-2.98.03-.1.08-.2.2-.28v2.11c0,1.41,0,2.82,0,4.23.02,1.28.08,2.55.09,3.83,0,.78-.09,1.56-.09,2.34,0,1.39.07,2.77.09,4.16.02,1.34.01,2.69,0,4.03-.02,1.27-.08,2.54-.08,3.81,0,1.2.1,2.41.07,3.61-.06,1.97-.85,3.61-2.41,4.85-.25.2-.56.31-.83.5-.53.37-.96.02-1.36-.23-1.63-.99-3.25-2-4.85-3.04-2.3-1.48-4.59-2.99-6.87-4.5-.23-.15-.43-.35-.68-.55,1.01-.5,1.98-.95,2.93-1.46,1.14-.6,2.29-1.21,3.38-1.89.94-.59,1.85-1.23,2.68-1.96,1.23-1.07,2.04-2.42,2.08-4.11.02-.64.02-1.3-.07-1.93-.16-1.04-.74-1.84-1.6-2.47-1.46-1.06-3.14-1.26-4.85-1.16-1.52.09-3.03.33-4.48.87-1.56.58-3.15,1.07-4.72,1.61-.27.09-.51.25-.76.37-.02-.04-.04-.07-.07-.11Z"/>
            <path class="cls-1" d="m5.75,47.44c.53-.59.92-1.04,1.33-1.47.96-1,1.92-2,2.89-2.99.95-.98,1.87-2,2.87-2.93,1.06-.99,2.21-1.9,3.31-2.85.47-.41.9-.87,1.38-1.26.68-.55,1.4-1.07,2.1-1.6,1.75-1.33,3.74-2.26,5.67-3.29.62-.33,1.29-.56,1.95-.83,1.01-.42,2.01-.84,3.03-1.23.4-.15.84-.22,1.27-.29.67-.12,1.34-.27,2.02-.28.36,0,.82.17,1.05.43.26.3.12.8-.14,1.09-.51.57-1.05,1.13-1.65,1.6-1.67,1.27-3.53,2.2-5.48,2.96-1.03.4-2.07.78-3.12,1.14-.15.05-.38,0-.53-.07-.54-.28-1.04-.66-1.61-.87-1.21-.46-2.38.03-2.81,1.11-.22.56-.28,1.09,0,1.7.56,1.17,1.69,1.63,2.64,2.31.91.65,1.85,1.27,2.79,1.87.96.61,1.95,1.18,2.92,1.79.69.44,1.36.92,2.06,1.36,1.41.9,2.83,1.8,4.25,2.7.05.03.08.07.21.18-.28.01-.46.03-.63.03-2.88,0-5.76,0-8.65,0-.81,0-1.61.09-2.42.09-.94,0-1.89-.08-2.83-.09-.81,0-1.62.08-2.43.07-1.17,0-2.33-.07-3.5-.08-2.14-.01-4.28.01-6.42-.02-.46,0-.92-.16-1.5-.27Z"/>
            <path class="cls-1" d="m32.09,16.17c.38-.46.65-.82.95-1.16,1.03-1.14,2.06-2.29,3.12-3.41.73-.77,1.54-1.44,2.64-1.67,1.54-.33,2.36.95,2.15,2.24-.22,1.32-1.1,2.21-2.1,2.98-.97.75-2.07,1.08-3.31,1.03-1.09-.04-2.19,0-3.45,0Z"/>
          </g>
        </g>
      </g>
      <rect class="cls-3" width="302" height="52"/>
    </g>
  </g>
</svg>