<?xml version="1.0" encoding="UTF-8"?>
<svg id="Layer_2" data-name="Layer 2" xmlns="http://www.w3.org/2000/svg" viewBox="0 0 423.66 89">
  <defs>
    <style>
      .cls-1 {
        fill: #231815;
        font-family: Meiryo-Bold, Meiryo;
        font-size: 48.92px;
        font-weight: 700;
        letter-spacing: .05em;
      }

      .cls-2 {
        fill: #3e3a39;
        font-family: ArialMT, Arial;
        font-size: 22.72px;
      }

      .cls-3, .cls-4 {
        fill: #e50012;
      }

      .cls-5 {
        fill: #0088cd;
      }

      .cls-5, .cls-4 {
        fill-rule: evenodd;
      }

      .cls-6 {
        fill: none;
      }
    </style>
  </defs>
  <g id="_テキスト" data-name="テキスト">
    <g>
      <text class="cls-1" transform="translate(115.44 48.55)"><tspan x="0" y="0">京友株式会社</tspan></text>
      <text class="cls-2" transform="translate(115.44 81.24)"><tspan x="0" y="0">KEIYU Co.,Ltd.</tspan></text>
      <g>
        <path class="cls-3" d="m5.15,2.4C1.84,4.77.03,7.92,0,12.03c-.02,3.7,0,7.39,0,11.09v1.25c3.22,0,6.3,0,9.38,0,12.67,0,25.34,0,38,0,.78,0,1.37-.16,1.92-.84,1.31-1.62,2.75-3.13,4.15-4.69,1.33-1.48,2.65-2.98,4-4.44,2.45-2.66,4.84-5.4,7.42-7.93,1.44-1.4,3.14-2.62,4.9-3.6,2.34-1.3,4.86-2.22,7.63-2.29-1.07-.12-2.14-.18-3.2-.2H10.9c-2.08.13-4,.77-5.75,2.02Z"/>
        <path class="cls-5" d="m43.53,44.8c3.17-1.09,6.38-2.09,9.53-3.25,2.93-1.09,5.97-1.57,9.05-1.75,3.46-.2,6.84.2,9.79,2.34,1.72,1.26,2.9,2.87,3.22,4.98.19,1.28.18,2.6.15,3.9-.09,3.41-1.73,6.12-4.2,8.29-1.67,1.47-3.52,2.77-5.41,3.95-2.2,1.38-4.52,2.6-6.82,3.82-1.91,1.01-3.87,1.93-5.91,2.94.5.41.91.8,1.38,1.11,4.61,3.04,9.23,6.08,13.87,9.07,3.23,2.08,6.49,4.13,9.78,6.12.8.49,1.54.98,2.75.46.73-.32,1.68-1.01,2.18-1.41,2.44-1.95,3.99-5.09,4.04-6.83V19.22c-.1.21-1.99,4.85-3.41,6.62-1.17,1.46-2.52,2.81-3.97,3.98-1.21.97-2.73,1.78-4.13,2.48-1.02.51-2.1.99-3.21,1.23-2.02.43-4.07.81-6.12.97-1.73.13-3.53.03-5.27.02-1.36,0-2.62-.12-3.99-.12-1.28,0-2.56-.17-3.84-.12-.78.03-1.49.36-2.07,1-1.19,1.32-2.38,2.58-3.54,3.85-.73.81-1.52,1.67-2.24,2.5-1.09,1.26-2.14,2.48-3.26,3.71l1.67-.54Z"/>
        <path class="cls-5" d="m64.61,87.82c-2.86-1.82-5.73-3.63-8.57-5.47-1.4-.9-2.75-1.87-4.15-2.76-1.95-1.23-3.94-2.38-5.88-3.62-1.9-1.22-3.79-2.47-5.63-3.79-1.92-1.38-4.2-2.31-5.33-4.68-.58-1.23-.46-2.31-.02-3.45.86-2.2,3.23-3.2,5.67-2.26,1.14.44,2.14,1.21,3.24,1.77.31.16.77.25,1.08.14,2.11-.73,4.21-1.49,6.29-2.3,3.93-1.54,7.69-3.43,11.05-6.01,1.22-.94,2.3-2.08,3.33-3.24.53-.59.82-1.6.29-2.21-.46-.53-1.4-.88-2.12-.87-1.36.02-2.67.28-4.02.51-.86.15-2.22.52-3.04.8-2.16.74-3.65,1.29-5.65,2.19-1.3.59-2.64,1.19-3.96,1.83-3.98,1.92-7.9,3.97-11.44,6.67-1.41,1.08-2.86,2.13-4.24,3.26-.97.8-1.97,1.69-2.93,2.5-2.28,1.92-4.39,3.82-6.53,5.83-2.02,1.89-3.87,3.95-5.79,5.95-1.95,2.02-3.89,4.03-5.82,6.07-.83.87-1.61,1.79-2.68,2.99.82.29,1.49.49,2.41.49h54.94c-.27-.2-.41-.29-.5-.35Z"/>
        <path class="cls-5" d="m74.43,11.77c-2.24.48-3.9,1.82-5.38,3.38-2.14,2.25-4.11,4.57-6.19,6.88-.61.68-1.21,1.41-1.96,2.34,2.55,0,4.71,0,6.96.02,2.5.01,4.77-.66,6.73-2.18,2.02-1.57,3.73-3.25,4.18-5.92.43-2.59-1.22-5.18-4.33-4.51Z"/>
        <path class="cls-4" d="m0,34.26v32.95c0,2.94-.01,5.89.01,8.83,0,.57.15,1.15.27,2,2.11-2.3,39.26-43.77,39.26-43.77H0Z"/>
      </g>
    </g>
    <rect class="cls-6" x="1.33" width="421" height="89"/>
  </g>
</svg>